<mxfile host="app.diagrams.net" modified="2022-11-07T06:01:27.432Z" agent="5.0 (Windows NT 10.0; Win64; x64) AppleWebKit/537.36 (KHTML, like Gecko) Chrome/107.0.0.0 Safari/537.36" etag="M9EHcH7dwh6hmm1D8F_H" version="20.5.3" type="github">
  <diagram id="8IbSospsyq2V__UgKZP8" name="Page-1">
    <mxGraphModel dx="1038" dy="513" grid="1" gridSize="10" guides="1" tooltips="1" connect="1" arrows="1" fold="1" page="1" pageScale="1" pageWidth="850" pageHeight="1100" math="0" shadow="0">
      <root>
        <mxCell id="0" />
        <mxCell id="1" parent="0" />
        <mxCell id="l_cPsda_slowRzZ6aufG-112" style="edgeStyle=elbowEdgeStyle;rounded=0;orthogonalLoop=1;jettySize=auto;html=1;entryX=0.5;entryY=0;entryDx=0;entryDy=0;labelBorderColor=none;" parent="1" source="l_cPsda_slowRzZ6aufG-55" target="l_cPsda_slowRzZ6aufG-86" edge="1">
          <mxGeometry relative="1" as="geometry" />
        </mxCell>
        <mxCell id="l_cPsda_slowRzZ6aufG-137" value="Công việc" style="edgeLabel;html=1;align=center;verticalAlign=middle;resizable=0;points=[];" parent="l_cPsda_slowRzZ6aufG-112" vertex="1" connectable="0">
          <mxGeometry x="-0.1111" relative="1" as="geometry">
            <mxPoint y="10" as="offset" />
          </mxGeometry>
        </mxCell>
        <mxCell id="l_cPsda_slowRzZ6aufG-55" value="Nhân viên kho" style="rounded=1;whiteSpace=wrap;html=1;fillStyle=hatch;" parent="1" vertex="1">
          <mxGeometry x="160" y="120" width="80" height="40" as="geometry" />
        </mxCell>
        <mxCell id="l_cPsda_slowRzZ6aufG-105" style="edgeStyle=elbowEdgeStyle;rounded=0;orthogonalLoop=1;jettySize=auto;html=1;labelBorderColor=none;exitX=0;exitY=0.5;exitDx=0;exitDy=0;entryX=0;entryY=0.5;entryDx=0;entryDy=0;" parent="1" source="l_cPsda_slowRzZ6aufG-86" target="l_cPsda_slowRzZ6aufG-103" edge="1">
          <mxGeometry relative="1" as="geometry">
            <Array as="points">
              <mxPoint x="80" y="475" />
              <mxPoint x="91" y="390" />
            </Array>
          </mxGeometry>
        </mxCell>
        <mxCell id="l_cPsda_slowRzZ6aufG-109" value="Công việc 1" style="edgeLabel;html=1;align=center;verticalAlign=middle;resizable=0;points=[];" parent="l_cPsda_slowRzZ6aufG-105" vertex="1" connectable="0">
          <mxGeometry x="0.1429" y="3" relative="1" as="geometry">
            <mxPoint x="49" y="3" as="offset" />
          </mxGeometry>
        </mxCell>
        <mxCell id="l_cPsda_slowRzZ6aufG-86" value="3" style="swimlane;fontStyle=0;childLayout=stackLayout;horizontal=1;startSize=18;horizontalStack=0;resizeParent=1;resizeParentMax=0;resizeLast=0;collapsible=1;marginBottom=0;whiteSpace=wrap;html=1;rounded=1;fillStyle=hatch;" parent="1" vertex="1">
          <mxGeometry x="120" y="300" width="160" height="58" as="geometry" />
        </mxCell>
        <mxCell id="l_cPsda_slowRzZ6aufG-87" value="&lt;div&gt;Quản lý &lt;br&gt;&lt;/div&gt;&lt;div&gt;Kho hàng&lt;/div&gt;" style="text;html=1;align=center;verticalAlign=middle;resizable=0;points=[];autosize=1;strokeColor=none;fillColor=none;" parent="l_cPsda_slowRzZ6aufG-86" vertex="1">
          <mxGeometry y="18" width="160" height="40" as="geometry" />
        </mxCell>
        <mxCell id="l_cPsda_slowRzZ6aufG-156" style="edgeStyle=elbowEdgeStyle;rounded=0;orthogonalLoop=1;jettySize=auto;html=1;entryX=0;entryY=0.5;entryDx=0;entryDy=0;labelBorderColor=none;" parent="1" source="l_cPsda_slowRzZ6aufG-103" target="l_cPsda_slowRzZ6aufG-151" edge="1">
          <mxGeometry relative="1" as="geometry" />
        </mxCell>
        <mxCell id="l_cPsda_slowRzZ6aufG-160" value="Xác nhận thông tin" style="edgeLabel;html=1;align=center;verticalAlign=middle;resizable=0;points=[];" parent="l_cPsda_slowRzZ6aufG-156" vertex="1" connectable="0">
          <mxGeometry x="0.1667" relative="1" as="geometry">
            <mxPoint as="offset" />
          </mxGeometry>
        </mxCell>
        <mxCell id="l_cPsda_slowRzZ6aufG-103" value="3.1" style="swimlane;fontStyle=0;childLayout=stackLayout;horizontal=1;startSize=19;horizontalStack=0;resizeParent=1;resizeParentMax=0;resizeLast=0;collapsible=1;marginBottom=0;whiteSpace=wrap;html=1;rounded=1;fillStyle=hatch;" parent="1" vertex="1">
          <mxGeometry x="240" y="390" width="160" height="49" as="geometry" />
        </mxCell>
        <mxCell id="l_cPsda_slowRzZ6aufG-192" style="edgeStyle=none;rounded=0;orthogonalLoop=1;jettySize=auto;html=1;labelBorderColor=none;" parent="l_cPsda_slowRzZ6aufG-103" source="l_cPsda_slowRzZ6aufG-104" target="l_cPsda_slowRzZ6aufG-103" edge="1">
          <mxGeometry relative="1" as="geometry" />
        </mxCell>
        <mxCell id="l_cPsda_slowRzZ6aufG-104" value="&lt;div&gt;Lấy thông tin nhà cung cấp&lt;br&gt;&lt;/div&gt;" style="text;html=1;align=center;verticalAlign=middle;resizable=0;points=[];autosize=1;strokeColor=none;fillColor=none;" parent="l_cPsda_slowRzZ6aufG-103" vertex="1">
          <mxGeometry y="19" width="160" height="30" as="geometry" />
        </mxCell>
        <mxCell id="l_cPsda_slowRzZ6aufG-163" style="edgeStyle=orthogonalEdgeStyle;rounded=0;orthogonalLoop=1;jettySize=auto;html=1;entryX=0.5;entryY=1;entryDx=0;entryDy=0;labelBorderColor=none;" parent="1" source="l_cPsda_slowRzZ6aufG-114" target="l_cPsda_slowRzZ6aufG-151" edge="1">
          <mxGeometry relative="1" as="geometry" />
        </mxCell>
        <mxCell id="l_cPsda_slowRzZ6aufG-164" value="Xác nhận số lượng" style="edgeLabel;html=1;align=center;verticalAlign=middle;resizable=0;points=[];" parent="l_cPsda_slowRzZ6aufG-163" vertex="1" connectable="0">
          <mxGeometry x="-0.4397" y="1" relative="1" as="geometry">
            <mxPoint x="40" y="1" as="offset" />
          </mxGeometry>
        </mxCell>
        <mxCell id="l_cPsda_slowRzZ6aufG-114" value="3.2" style="swimlane;fontStyle=0;childLayout=stackLayout;horizontal=1;startSize=19;horizontalStack=0;resizeParent=1;resizeParentMax=0;resizeLast=0;collapsible=1;marginBottom=0;whiteSpace=wrap;html=1;rounded=1;fillStyle=hatch;" parent="1" vertex="1">
          <mxGeometry x="240" y="470.00000000000006" width="160" height="49" as="geometry" />
        </mxCell>
        <mxCell id="l_cPsda_slowRzZ6aufG-115" value="&lt;div&gt;Đếm số lượng hàng&lt;br&gt;&lt;/div&gt;" style="text;html=1;align=center;verticalAlign=middle;resizable=0;points=[];autosize=1;strokeColor=none;fillColor=none;" parent="l_cPsda_slowRzZ6aufG-114" vertex="1">
          <mxGeometry y="19" width="160" height="30" as="geometry" />
        </mxCell>
        <mxCell id="l_cPsda_slowRzZ6aufG-173" style="edgeStyle=orthogonalEdgeStyle;rounded=0;orthogonalLoop=1;jettySize=auto;html=1;entryX=0.5;entryY=1;entryDx=0;entryDy=0;labelBorderColor=none;exitX=1;exitY=0.25;exitDx=0;exitDy=0;" parent="1" source="l_cPsda_slowRzZ6aufG-127" target="l_cPsda_slowRzZ6aufG-151" edge="1">
          <mxGeometry relative="1" as="geometry" />
        </mxCell>
        <mxCell id="l_cPsda_slowRzZ6aufG-174" value="Kiểm tra hàng nhập" style="edgeLabel;html=1;align=center;verticalAlign=middle;resizable=0;points=[];" parent="l_cPsda_slowRzZ6aufG-173" vertex="1" connectable="0">
          <mxGeometry x="-0.3062" y="1" relative="1" as="geometry">
            <mxPoint x="-6" as="offset" />
          </mxGeometry>
        </mxCell>
        <mxCell id="l_cPsda_slowRzZ6aufG-193" style="edgeStyle=orthogonalEdgeStyle;rounded=0;orthogonalLoop=1;jettySize=auto;html=1;entryX=0;entryY=0.5;entryDx=0;entryDy=0;labelBorderColor=none;exitX=1;exitY=0.75;exitDx=0;exitDy=0;" parent="1" source="l_cPsda_slowRzZ6aufG-127" target="l_cPsda_slowRzZ6aufG-150" edge="1">
          <mxGeometry relative="1" as="geometry">
            <mxPoint x="430" y="590" as="sourcePoint" />
          </mxGeometry>
        </mxCell>
        <mxCell id="l_cPsda_slowRzZ6aufG-127" value="3.3" style="swimlane;fontStyle=0;childLayout=stackLayout;horizontal=1;startSize=19;horizontalStack=0;resizeParent=1;resizeParentMax=0;resizeLast=0;collapsible=1;marginBottom=0;whiteSpace=wrap;html=1;rounded=1;fillStyle=hatch;" parent="1" vertex="1">
          <mxGeometry x="240" y="550" width="160" height="49" as="geometry" />
        </mxCell>
        <mxCell id="l_cPsda_slowRzZ6aufG-128" value="Nhập hàng" style="text;html=1;align=center;verticalAlign=middle;resizable=0;points=[];autosize=1;strokeColor=none;fillColor=none;" parent="l_cPsda_slowRzZ6aufG-127" vertex="1">
          <mxGeometry y="19" width="160" height="30" as="geometry" />
        </mxCell>
        <mxCell id="l_cPsda_slowRzZ6aufG-194" style="edgeStyle=orthogonalEdgeStyle;rounded=0;orthogonalLoop=1;jettySize=auto;html=1;entryX=0;entryY=0.5;entryDx=0;entryDy=0;labelBorderColor=none;" parent="1" source="l_cPsda_slowRzZ6aufG-129" target="l_cPsda_slowRzZ6aufG-150" edge="1">
          <mxGeometry relative="1" as="geometry" />
        </mxCell>
        <mxCell id="l_cPsda_slowRzZ6aufG-195" value="Cập nhật dữ liệu" style="edgeLabel;html=1;align=center;verticalAlign=middle;resizable=0;points=[];" parent="l_cPsda_slowRzZ6aufG-194" vertex="1" connectable="0">
          <mxGeometry x="0.2125" y="-3" relative="1" as="geometry">
            <mxPoint x="42" y="-3" as="offset" />
          </mxGeometry>
        </mxCell>
        <mxCell id="l_cPsda_slowRzZ6aufG-129" value="3.4" style="swimlane;fontStyle=0;childLayout=stackLayout;horizontal=1;startSize=19;horizontalStack=0;resizeParent=1;resizeParentMax=0;resizeLast=0;collapsible=1;marginBottom=0;whiteSpace=wrap;html=1;rounded=1;fillStyle=hatch;" parent="1" vertex="1">
          <mxGeometry x="240" y="630" width="160" height="49" as="geometry" />
        </mxCell>
        <mxCell id="l_cPsda_slowRzZ6aufG-130" value="Xuất hàng" style="text;html=1;align=center;verticalAlign=middle;resizable=0;points=[];autosize=1;strokeColor=none;fillColor=none;" parent="l_cPsda_slowRzZ6aufG-129" vertex="1">
          <mxGeometry y="19" width="160" height="30" as="geometry" />
        </mxCell>
        <mxCell id="l_cPsda_slowRzZ6aufG-206" style="edgeStyle=orthogonalEdgeStyle;rounded=0;orthogonalLoop=1;jettySize=auto;html=1;entryX=0.5;entryY=1;entryDx=0;entryDy=0;labelBorderColor=none;" parent="1" source="l_cPsda_slowRzZ6aufG-131" target="l_cPsda_slowRzZ6aufG-150" edge="1">
          <mxGeometry relative="1" as="geometry" />
        </mxCell>
        <mxCell id="l_cPsda_slowRzZ6aufG-207" value="Kiểm tra dữ liệu" style="edgeLabel;html=1;align=center;verticalAlign=middle;resizable=0;points=[];" parent="l_cPsda_slowRzZ6aufG-206" vertex="1" connectable="0">
          <mxGeometry x="-0.4354" y="-1" relative="1" as="geometry">
            <mxPoint x="74" y="-1" as="offset" />
          </mxGeometry>
        </mxCell>
        <mxCell id="l_cPsda_slowRzZ6aufG-131" value="3.5" style="swimlane;fontStyle=0;childLayout=stackLayout;horizontal=1;startSize=19;horizontalStack=0;resizeParent=1;resizeParentMax=0;resizeLast=0;collapsible=1;marginBottom=0;whiteSpace=wrap;html=1;rounded=1;fillStyle=hatch;" parent="1" vertex="1">
          <mxGeometry x="240" y="710" width="160" height="49" as="geometry" />
        </mxCell>
        <mxCell id="l_cPsda_slowRzZ6aufG-132" value="&lt;div&gt;Kiểm soát hàng tồn&lt;br&gt;&lt;/div&gt;" style="text;html=1;align=center;verticalAlign=middle;resizable=0;points=[];autosize=1;strokeColor=none;fillColor=none;" parent="l_cPsda_slowRzZ6aufG-131" vertex="1">
          <mxGeometry y="19" width="160" height="30" as="geometry" />
        </mxCell>
        <mxCell id="l_cPsda_slowRzZ6aufG-133" style="edgeStyle=elbowEdgeStyle;rounded=0;orthogonalLoop=1;jettySize=auto;html=1;labelBorderColor=none;entryX=0;entryY=0.5;entryDx=0;entryDy=0;exitX=0;exitY=0.5;exitDx=0;exitDy=0;" parent="1" source="l_cPsda_slowRzZ6aufG-86" target="l_cPsda_slowRzZ6aufG-114" edge="1">
          <mxGeometry relative="1" as="geometry">
            <Array as="points">
              <mxPoint x="80" y="490" />
              <mxPoint x="70" y="450" />
              <mxPoint x="91" y="440" />
              <mxPoint x="331" y="390" />
            </Array>
          </mxGeometry>
        </mxCell>
        <mxCell id="l_cPsda_slowRzZ6aufG-138" value="Công việc 2" style="edgeLabel;html=1;align=center;verticalAlign=middle;resizable=0;points=[];" parent="l_cPsda_slowRzZ6aufG-133" vertex="1" connectable="0">
          <mxGeometry x="0.5876" y="-2" relative="1" as="geometry">
            <mxPoint x="-2" y="-2" as="offset" />
          </mxGeometry>
        </mxCell>
        <mxCell id="l_cPsda_slowRzZ6aufG-134" style="edgeStyle=elbowEdgeStyle;rounded=0;orthogonalLoop=1;jettySize=auto;html=1;labelBorderColor=none;entryX=0;entryY=0.5;entryDx=0;entryDy=0;exitX=0;exitY=0.5;exitDx=0;exitDy=0;" parent="1" source="l_cPsda_slowRzZ6aufG-86" target="l_cPsda_slowRzZ6aufG-127" edge="1">
          <mxGeometry relative="1" as="geometry">
            <Array as="points">
              <mxPoint x="80" y="460" />
              <mxPoint x="91" y="420" />
              <mxPoint x="331" y="390" />
            </Array>
          </mxGeometry>
        </mxCell>
        <mxCell id="l_cPsda_slowRzZ6aufG-142" value="Công việc 4" style="edgeLabel;html=1;align=center;verticalAlign=middle;resizable=0;points=[];" parent="l_cPsda_slowRzZ6aufG-134" vertex="1" connectable="0">
          <mxGeometry x="0.6726" y="-2" relative="1" as="geometry">
            <mxPoint x="-5" y="-2" as="offset" />
          </mxGeometry>
        </mxCell>
        <mxCell id="l_cPsda_slowRzZ6aufG-135" style="edgeStyle=elbowEdgeStyle;rounded=0;orthogonalLoop=1;jettySize=auto;html=1;entryX=0;entryY=0.5;entryDx=0;entryDy=0;labelBorderColor=none;exitX=0;exitY=0.5;exitDx=0;exitDy=0;" parent="1" source="l_cPsda_slowRzZ6aufG-86" target="l_cPsda_slowRzZ6aufG-129" edge="1">
          <mxGeometry relative="1" as="geometry">
            <mxPoint x="381" y="320" as="sourcePoint" />
            <Array as="points">
              <mxPoint x="80" y="460" />
              <mxPoint x="91" y="550" />
              <mxPoint x="331" y="380" />
            </Array>
          </mxGeometry>
        </mxCell>
        <mxCell id="l_cPsda_slowRzZ6aufG-184" value="Công việc 5" style="edgeLabel;html=1;align=center;verticalAlign=middle;resizable=0;points=[];" parent="l_cPsda_slowRzZ6aufG-135" vertex="1" connectable="0">
          <mxGeometry x="0.7064" y="-2" relative="1" as="geometry">
            <mxPoint x="-2" y="-2" as="offset" />
          </mxGeometry>
        </mxCell>
        <mxCell id="l_cPsda_slowRzZ6aufG-136" style="edgeStyle=elbowEdgeStyle;rounded=0;orthogonalLoop=1;jettySize=auto;html=1;labelBorderColor=none;entryX=0;entryY=0.5;entryDx=0;entryDy=0;exitX=0;exitY=0.5;exitDx=0;exitDy=0;" parent="1" source="l_cPsda_slowRzZ6aufG-86" target="l_cPsda_slowRzZ6aufG-131" edge="1">
          <mxGeometry relative="1" as="geometry">
            <mxPoint x="501" y="720" as="targetPoint" />
            <Array as="points">
              <mxPoint x="80" y="390" />
              <mxPoint x="91" y="440" />
              <mxPoint x="331" y="390" />
            </Array>
          </mxGeometry>
        </mxCell>
        <mxCell id="l_cPsda_slowRzZ6aufG-143" value="Công việc 6" style="edgeLabel;html=1;align=center;verticalAlign=middle;resizable=0;points=[];" parent="l_cPsda_slowRzZ6aufG-136" vertex="1" connectable="0">
          <mxGeometry x="0.789" y="-2" relative="1" as="geometry">
            <mxPoint x="-15" y="-2" as="offset" />
          </mxGeometry>
        </mxCell>
        <mxCell id="l_cPsda_slowRzZ6aufG-208" style="edgeStyle=orthogonalEdgeStyle;rounded=0;orthogonalLoop=1;jettySize=auto;html=1;entryX=1;entryY=0.5;entryDx=0;entryDy=0;labelBorderColor=none;exitX=1;exitY=0.5;exitDx=0;exitDy=0;" parent="1" source="l_cPsda_slowRzZ6aufG-150" target="l_cPsda_slowRzZ6aufG-151" edge="1">
          <mxGeometry relative="1" as="geometry">
            <Array as="points">
              <mxPoint x="840" y="635" />
              <mxPoint x="840" y="415" />
            </Array>
          </mxGeometry>
        </mxCell>
        <mxCell id="l_cPsda_slowRzZ6aufG-150" value="Hệ thống dữ liệu" style="rounded=1;whiteSpace=wrap;html=1;fillStyle=hatch;" parent="1" vertex="1">
          <mxGeometry x="640" y="610" width="120" height="49" as="geometry" />
        </mxCell>
        <mxCell id="l_cPsda_slowRzZ6aufG-197" style="edgeStyle=orthogonalEdgeStyle;rounded=0;orthogonalLoop=1;jettySize=auto;html=1;entryX=0.5;entryY=1;entryDx=0;entryDy=0;labelBorderColor=none;exitX=0.5;exitY=0;exitDx=0;exitDy=0;" parent="1" source="l_cPsda_slowRzZ6aufG-151" target="l_cPsda_slowRzZ6aufG-196" edge="1">
          <mxGeometry relative="1" as="geometry" />
        </mxCell>
        <mxCell id="l_cPsda_slowRzZ6aufG-198" value="Báo cáo" style="edgeLabel;html=1;align=center;verticalAlign=middle;resizable=0;points=[];" parent="l_cPsda_slowRzZ6aufG-197" vertex="1" connectable="0">
          <mxGeometry x="0.2613" y="2" relative="1" as="geometry">
            <mxPoint x="2" y="18" as="offset" />
          </mxGeometry>
        </mxCell>
        <mxCell id="l_cPsda_slowRzZ6aufG-151" value="Xác nhận" style="rounded=1;whiteSpace=wrap;html=1;fillStyle=hatch;" parent="1" vertex="1">
          <mxGeometry x="640" y="390" width="120" height="49" as="geometry" />
        </mxCell>
        <mxCell id="l_cPsda_slowRzZ6aufG-200" style="edgeStyle=orthogonalEdgeStyle;rounded=0;orthogonalLoop=1;jettySize=auto;html=1;entryX=1;entryY=0.5;entryDx=0;entryDy=0;labelBorderColor=none;exitX=1;exitY=0.5;exitDx=0;exitDy=0;" parent="1" source="l_cPsda_slowRzZ6aufG-196" target="l_cPsda_slowRzZ6aufG-127" edge="1">
          <mxGeometry relative="1" as="geometry">
            <mxPoint x="800" y="290" as="sourcePoint" />
            <Array as="points">
              <mxPoint x="800" y="255" />
              <mxPoint x="800" y="575" />
            </Array>
          </mxGeometry>
        </mxCell>
        <mxCell id="l_cPsda_slowRzZ6aufG-201" value="Chấp nhận" style="edgeLabel;html=1;align=center;verticalAlign=middle;resizable=0;points=[];" parent="l_cPsda_slowRzZ6aufG-200" vertex="1" connectable="0">
          <mxGeometry x="-0.6542" y="-2" relative="1" as="geometry">
            <mxPoint y="-20" as="offset" />
          </mxGeometry>
        </mxCell>
        <mxCell id="l_cPsda_slowRzZ6aufG-196" value="Thủ kho" style="rounded=1;whiteSpace=wrap;html=1;fillStyle=hatch;" parent="1" vertex="1">
          <mxGeometry x="640" y="230" width="120" height="49" as="geometry" />
        </mxCell>
      </root>
    </mxGraphModel>
  </diagram>
</mxfile>
